# xmcd
#
# Track frame offsets:
#	150
#	18896
#	43900
#	71615
#	94481
#	126577
#	156424
#	191902
#	220178
#
# Disc length: 3442 seconds
#
# Revision: 20
# Processed by: cddbd v1.5.2PL0 Copyright (c) Steve Scherf et al.
# Submitted via: Jack! The Knife 20 Magnifico
#
DISCID=8b0d7009
DTITLE=Solitude Aeturnus - Through The Darkest Hour
DYEAR=1994
DGENRE=Metal
TTITLE0=Falling
TTITLE1=Haunting The Obscure
TTITLE2=The 8th Day: Mourning
TTITLE3=The 9th Day: Awakening
TTITLE4=Pain
TTITLE5=Pawns Of Anger
TTITLE6=Eternal (Dreams Part II)
TTITLE7=Perfect Insanity
TTITLE8=Shattered My Spirit
EXTD=Paul Johnston and Solitude Aeturnus
EXTT0=Lowe, Rivera, Perez, Steadham, Covington
EXTT1=Lowe, Rivera, Perez, Steadham, Covington
EXTT2=Lowe, Rivera, Perez, Steadham, Covington
EXTT3=Lowe, Rivera, Perez, Steadham, Covington
EXTT4=Lowe, Rivera, Perez, Steadham, Covington
EXTT5=Lowe, Rivera, Perez, Steadham, Covington
EXTT6=Lowe, Rivera, Perez, Steadham, Covington
EXTT7=Lowe, Rivera, Perez, Steadham, Covington
EXTT8=Lowe, Rivera, Perez, Steadham, Covington
PLAYORDER=
